<svg width="631" height="329" viewBox="0 0 631 329" fill="none" xmlns="http://www.w3.org/2000/svg">
  <g opacity="0.6">
  <circle cx="1.80252" cy="175.377" r="1.80252" fill="#D9D9D9"/>
  <circle cx="109.955" cy="175.377" r="1.80252" fill="#D9D9D9"/>
  <circle cx="218.103" cy="175.377" r="1.80252" fill="#D9D9D9"/>
  <circle cx="23.4314" cy="175.377" r="1.80252" fill="#D9D9D9"/>
  <circle cx="131.584" cy="175.377" r="1.80252" fill="#D9D9D9"/>
  <circle cx="239.736" cy="175.377" r="1.80252" fill="#D9D9D9"/>
  <circle cx="45.0642" cy="175.377" r="1.80252" fill="#D9D9D9"/>
  <circle cx="153.213" cy="175.377" r="1.80252" fill="#D9D9D9"/>
  <circle cx="261.365" cy="175.377" r="1.80252" fill="#D9D9D9"/>
  <circle cx="66.6931" cy="175.377" r="1.80252" fill="#D9D9D9"/>
  <circle cx="174.842" cy="175.377" r="1.80252" fill="#D9D9D9"/>
  <circle cx="282.994" cy="175.377" r="1.80252" fill="#D9D9D9"/>
  <circle cx="88.322" cy="175.377" r="1.80252" fill="#D9D9D9"/>
  <circle cx="196.474" cy="175.377" r="1.80252" fill="#D9D9D9"/>
  <circle cx="304.623" cy="175.377" r="1.80252" fill="#D9D9D9"/>
  <circle cx="1.80252" cy="305.158" r="1.80252" fill="#D9D9D9"/>
  <circle cx="109.955" cy="305.158" r="1.80252" fill="#D9D9D9"/>
  <circle cx="218.103" cy="305.158" r="1.80252" fill="#D9D9D9"/>
  <circle cx="23.4314" cy="305.158" r="1.80252" fill="#D9D9D9"/>
  <circle cx="131.584" cy="305.158" r="1.80252" fill="#D9D9D9"/>
  <circle cx="239.736" cy="305.158" r="1.80252" fill="#D9D9D9"/>
  <circle cx="45.0642" cy="305.158" r="1.80252" fill="#D9D9D9"/>
  <circle cx="153.213" cy="305.158" r="1.80252" fill="#D9D9D9"/>
  <circle cx="261.365" cy="305.158" r="1.80252" fill="#D9D9D9"/>
  <circle cx="66.6931" cy="305.158" r="1.80252" fill="#D9D9D9"/>
  <circle cx="174.842" cy="305.158" r="1.80252" fill="#D9D9D9"/>
  <circle cx="282.994" cy="305.158" r="1.80252" fill="#D9D9D9"/>
  <circle cx="88.322" cy="305.158" r="1.80252" fill="#D9D9D9"/>
  <circle cx="196.474" cy="305.158" r="1.80252" fill="#D9D9D9"/>
  <circle cx="304.623" cy="305.158" r="1.80252" fill="#D9D9D9"/>
  <circle cx="1.80252" cy="283.527" r="1.80252" fill="#D9D9D9"/>
  <circle cx="109.955" cy="283.527" r="1.80252" fill="#D9D9D9"/>
  <circle cx="218.103" cy="283.527" r="1.80252" fill="#D9D9D9"/>
  <circle cx="23.4314" cy="283.527" r="1.80252" fill="#D9D9D9"/>
  <circle cx="131.584" cy="283.527" r="1.80252" fill="#D9D9D9"/>
  <circle cx="239.736" cy="283.527" r="1.80252" fill="#D9D9D9"/>
  <circle cx="45.0642" cy="283.527" r="1.80252" fill="#D9D9D9"/>
  <circle cx="153.213" cy="283.527" r="1.80252" fill="#D9D9D9"/>
  <circle cx="261.365" cy="283.527" r="1.80252" fill="#D9D9D9"/>
  <circle cx="66.6931" cy="283.527" r="1.80252" fill="#D9D9D9"/>
  <circle cx="174.842" cy="283.527" r="1.80252" fill="#D9D9D9"/>
  <circle cx="282.994" cy="283.527" r="1.80252" fill="#D9D9D9"/>
  <circle cx="88.322" cy="283.527" r="1.80252" fill="#D9D9D9"/>
  <circle cx="196.474" cy="283.527" r="1.80252" fill="#D9D9D9"/>
  <circle cx="304.623" cy="283.527" r="1.80252" fill="#D9D9D9"/>
  <circle cx="1.80252" cy="261.898" r="1.80252" fill="#D9D9D9"/>
  <circle cx="109.955" cy="261.898" r="1.80252" fill="#D9D9D9"/>
  <circle cx="218.103" cy="261.898" r="1.80252" fill="#D9D9D9"/>
  <circle cx="23.4314" cy="261.898" r="1.80252" fill="#D9D9D9"/>
  <circle cx="131.584" cy="261.898" r="1.80252" fill="#D9D9D9"/>
  <circle cx="239.736" cy="261.898" r="1.80252" fill="#D9D9D9"/>
  <circle cx="45.0642" cy="261.898" r="1.80252" fill="#D9D9D9"/>
  <circle cx="153.213" cy="261.898" r="1.80252" fill="#D9D9D9"/>
  <circle cx="261.365" cy="261.898" r="1.80252" fill="#D9D9D9"/>
  <circle cx="66.6931" cy="261.898" r="1.80252" fill="#D9D9D9"/>
  <circle cx="174.842" cy="261.898" r="1.80252" fill="#D9D9D9"/>
  <circle cx="282.994" cy="261.898" r="1.80252" fill="#D9D9D9"/>
  <circle cx="88.322" cy="261.898" r="1.80252" fill="#D9D9D9"/>
  <circle cx="196.474" cy="261.898" r="1.80252" fill="#D9D9D9"/>
  <circle cx="304.623" cy="261.898" r="1.80252" fill="#D9D9D9"/>
  <circle cx="1.80252" cy="326.789" r="1.80252" fill="#D9D9D9"/>
  <circle cx="109.955" cy="326.789" r="1.80252" fill="#D9D9D9"/>
  <circle cx="218.103" cy="326.789" r="1.80252" fill="#D9D9D9"/>
  <circle cx="23.4314" cy="326.789" r="1.80252" fill="#D9D9D9"/>
  <circle cx="131.584" cy="326.789" r="1.80252" fill="#D9D9D9"/>
  <circle cx="239.736" cy="326.789" r="1.80252" fill="#D9D9D9"/>
  <circle cx="45.0642" cy="326.789" r="1.80252" fill="#D9D9D9"/>
  <circle cx="153.213" cy="326.789" r="1.80252" fill="#D9D9D9"/>
  <circle cx="261.365" cy="326.789" r="1.80252" fill="#D9D9D9"/>
  <circle cx="66.6931" cy="326.789" r="1.80252" fill="#D9D9D9"/>
  <circle cx="174.842" cy="326.789" r="1.80252" fill="#D9D9D9"/>
  <circle cx="282.994" cy="326.789" r="1.80252" fill="#D9D9D9"/>
  <circle cx="88.322" cy="326.789" r="1.80252" fill="#D9D9D9"/>
  <circle cx="196.474" cy="326.789" r="1.80252" fill="#D9D9D9"/>
  <circle cx="304.623" cy="326.789" r="1.80252" fill="#D9D9D9"/>
  <circle cx="1.80252" cy="240.267" r="1.80252" fill="#D9D9D9"/>
  <circle cx="109.955" cy="240.267" r="1.80252" fill="#D9D9D9"/>
  <circle cx="218.103" cy="240.267" r="1.80252" fill="#D9D9D9"/>
  <circle cx="23.4314" cy="240.267" r="1.80252" fill="#D9D9D9"/>
  <circle cx="131.584" cy="240.267" r="1.80252" fill="#D9D9D9"/>
  <circle cx="239.736" cy="240.267" r="1.80252" fill="#D9D9D9"/>
  <circle cx="45.0642" cy="240.267" r="1.80252" fill="#D9D9D9"/>
  <circle cx="153.213" cy="240.267" r="1.80252" fill="#D9D9D9"/>
  <circle cx="261.365" cy="240.267" r="1.80252" fill="#D9D9D9"/>
  <circle cx="66.6931" cy="240.267" r="1.80252" fill="#D9D9D9"/>
  <circle cx="174.842" cy="240.267" r="1.80252" fill="#D9D9D9"/>
  <circle cx="282.994" cy="240.267" r="1.80252" fill="#D9D9D9"/>
  <circle cx="88.322" cy="240.267" r="1.80252" fill="#D9D9D9"/>
  <circle cx="196.474" cy="240.267" r="1.80252" fill="#D9D9D9"/>
  <circle cx="304.623" cy="240.267" r="1.80252" fill="#D9D9D9"/>
  <circle cx="1.80252" cy="218.636" r="1.80252" fill="#D9D9D9"/>
  <circle cx="109.955" cy="218.636" r="1.80252" fill="#D9D9D9"/>
  <circle cx="218.103" cy="218.636" r="1.80252" fill="#D9D9D9"/>
  <circle cx="23.4314" cy="218.636" r="1.80252" fill="#D9D9D9"/>
  <circle cx="131.584" cy="218.636" r="1.80252" fill="#D9D9D9"/>
  <circle cx="239.736" cy="218.636" r="1.80252" fill="#D9D9D9"/>
  <circle cx="45.0642" cy="218.636" r="1.80252" fill="#D9D9D9"/>
  <circle cx="153.213" cy="218.636" r="1.80252" fill="#D9D9D9"/>
  <circle cx="261.365" cy="218.636" r="1.80252" fill="#D9D9D9"/>
  <circle cx="66.6931" cy="218.636" r="1.80252" fill="#D9D9D9"/>
  <circle cx="174.842" cy="218.636" r="1.80252" fill="#D9D9D9"/>
  <circle cx="282.994" cy="218.636" r="1.80252" fill="#D9D9D9"/>
  <circle cx="88.322" cy="218.636" r="1.80252" fill="#D9D9D9"/>
  <circle cx="196.474" cy="218.636" r="1.80252" fill="#D9D9D9"/>
  <circle cx="304.623" cy="218.636" r="1.80252" fill="#D9D9D9"/>
  <circle cx="1.80252" cy="197.007" r="1.80252" fill="#D9D9D9"/>
  <circle cx="109.955" cy="197.007" r="1.80252" fill="#D9D9D9"/>
  <circle cx="218.103" cy="197.007" r="1.80252" fill="#D9D9D9"/>
  <circle cx="23.4314" cy="197.007" r="1.80252" fill="#D9D9D9"/>
  <circle cx="131.584" cy="197.007" r="1.80252" fill="#D9D9D9"/>
  <circle cx="239.736" cy="197.007" r="1.80252" fill="#D9D9D9"/>
  <circle cx="45.0642" cy="197.007" r="1.80252" fill="#D9D9D9"/>
  <circle cx="153.213" cy="197.007" r="1.80252" fill="#D9D9D9"/>
  <circle cx="261.365" cy="197.007" r="1.80252" fill="#D9D9D9"/>
  <circle cx="66.6931" cy="197.007" r="1.80252" fill="#D9D9D9"/>
  <circle cx="174.842" cy="197.007" r="1.80252" fill="#D9D9D9"/>
  <circle cx="282.994" cy="197.007" r="1.80252" fill="#D9D9D9"/>
  <circle cx="88.322" cy="197.007" r="1.80252" fill="#D9D9D9"/>
  <circle cx="196.474" cy="197.007" r="1.80252" fill="#D9D9D9"/>
  <circle cx="304.623" cy="197.007" r="1.80252" fill="#D9D9D9"/>
  <circle cx="1.80252" cy="2.70681" r="1.80252" fill="#D9D9D9"/>
  <circle cx="109.955" cy="2.70681" r="1.80252" fill="#D9D9D9"/>
  <circle cx="218.103" cy="2.70681" r="1.80252" fill="#D9D9D9"/>
  <circle cx="23.4314" cy="2.70681" r="1.80252" fill="#D9D9D9"/>
  <circle cx="131.584" cy="2.70681" r="1.80252" fill="#D9D9D9"/>
  <circle cx="239.736" cy="2.70681" r="1.80252" fill="#D9D9D9"/>
  <circle cx="45.0642" cy="2.70681" r="1.80252" fill="#D9D9D9"/>
  <circle cx="153.213" cy="2.70681" r="1.80252" fill="#D9D9D9"/>
  <circle cx="261.365" cy="2.70681" r="1.80252" fill="#D9D9D9"/>
  <circle cx="66.6931" cy="2.70681" r="1.80252" fill="#D9D9D9"/>
  <circle cx="174.842" cy="2.70681" r="1.80252" fill="#D9D9D9"/>
  <circle cx="282.994" cy="2.70681" r="1.80252" fill="#D9D9D9"/>
  <circle cx="88.322" cy="2.70681" r="1.80252" fill="#D9D9D9"/>
  <circle cx="196.474" cy="2.70681" r="1.80252" fill="#D9D9D9"/>
  <circle cx="304.623" cy="2.70681" r="1.80252" fill="#D9D9D9"/>
  <circle cx="1.80252" cy="132.488" r="1.80252" fill="#D9D9D9"/>
  <circle cx="109.955" cy="132.488" r="1.80252" fill="#D9D9D9"/>
  <circle cx="218.103" cy="132.488" r="1.80252" fill="#D9D9D9"/>
  <circle cx="23.4314" cy="132.488" r="1.80252" fill="#D9D9D9"/>
  <circle cx="131.584" cy="132.488" r="1.80252" fill="#D9D9D9"/>
  <circle cx="239.736" cy="132.488" r="1.80252" fill="#D9D9D9"/>
  <circle cx="45.0642" cy="132.488" r="1.80252" fill="#D9D9D9"/>
  <circle cx="153.213" cy="132.488" r="1.80252" fill="#D9D9D9"/>
  <circle cx="261.365" cy="132.488" r="1.80252" fill="#D9D9D9"/>
  <circle cx="66.6931" cy="132.488" r="1.80252" fill="#D9D9D9"/>
  <circle cx="174.842" cy="132.488" r="1.80252" fill="#D9D9D9"/>
  <circle cx="282.994" cy="132.488" r="1.80252" fill="#D9D9D9"/>
  <circle cx="88.322" cy="132.488" r="1.80252" fill="#D9D9D9"/>
  <circle cx="196.474" cy="132.488" r="1.80252" fill="#D9D9D9"/>
  <circle cx="304.623" cy="132.488" r="1.80252" fill="#D9D9D9"/>
  <circle cx="1.80252" cy="110.857" r="1.80252" fill="#D9D9D9"/>
  <circle cx="109.955" cy="110.857" r="1.80252" fill="#D9D9D9"/>
  <circle cx="218.103" cy="110.857" r="1.80252" fill="#D9D9D9"/>
  <circle cx="23.4314" cy="110.857" r="1.80252" fill="#D9D9D9"/>
  <circle cx="131.584" cy="110.857" r="1.80252" fill="#D9D9D9"/>
  <circle cx="239.736" cy="110.857" r="1.80252" fill="#D9D9D9"/>
  <circle cx="45.0642" cy="110.857" r="1.80252" fill="#D9D9D9"/>
  <circle cx="153.213" cy="110.857" r="1.80252" fill="#D9D9D9"/>
  <circle cx="261.365" cy="110.857" r="1.80252" fill="#D9D9D9"/>
  <circle cx="66.6931" cy="110.857" r="1.80252" fill="#D9D9D9"/>
  <circle cx="174.842" cy="110.857" r="1.80252" fill="#D9D9D9"/>
  <circle cx="282.994" cy="110.857" r="1.80252" fill="#D9D9D9"/>
  <circle cx="88.322" cy="110.857" r="1.80252" fill="#D9D9D9"/>
  <circle cx="196.474" cy="110.857" r="1.80252" fill="#D9D9D9"/>
  <circle cx="304.623" cy="110.857" r="1.80252" fill="#D9D9D9"/>
  <circle cx="1.80252" cy="89.2283" r="1.80252" fill="#D9D9D9"/>
  <circle cx="109.955" cy="89.2283" r="1.80252" fill="#D9D9D9"/>
  <circle cx="218.103" cy="89.2283" r="1.80252" fill="#D9D9D9"/>
  <circle cx="23.4314" cy="89.2283" r="1.80252" fill="#D9D9D9"/>
  <circle cx="131.584" cy="89.2283" r="1.80252" fill="#D9D9D9"/>
  <circle cx="239.736" cy="89.2283" r="1.80252" fill="#D9D9D9"/>
  <circle cx="45.0642" cy="89.2283" r="1.80252" fill="#D9D9D9"/>
  <circle cx="153.213" cy="89.2283" r="1.80252" fill="#D9D9D9"/>
  <circle cx="261.365" cy="89.2283" r="1.80252" fill="#D9D9D9"/>
  <circle cx="66.6931" cy="89.2283" r="1.80252" fill="#D9D9D9"/>
  <circle cx="174.842" cy="89.2283" r="1.80252" fill="#D9D9D9"/>
  <circle cx="282.994" cy="89.2283" r="1.80252" fill="#D9D9D9"/>
  <circle cx="88.322" cy="89.2283" r="1.80252" fill="#D9D9D9"/>
  <circle cx="196.474" cy="89.2283" r="1.80252" fill="#D9D9D9"/>
  <circle cx="304.623" cy="89.2283" r="1.80252" fill="#D9D9D9"/>
  <circle cx="1.80252" cy="154.119" r="1.80252" fill="#D9D9D9"/>
  <circle cx="109.955" cy="154.119" r="1.80252" fill="#D9D9D9"/>
  <circle cx="218.103" cy="154.119" r="1.80252" fill="#D9D9D9"/>
  <circle cx="23.4314" cy="154.119" r="1.80252" fill="#D9D9D9"/>
  <circle cx="131.584" cy="154.119" r="1.80252" fill="#D9D9D9"/>
  <circle cx="239.736" cy="154.119" r="1.80252" fill="#D9D9D9"/>
  <circle cx="45.0642" cy="154.119" r="1.80252" fill="#D9D9D9"/>
  <circle cx="153.213" cy="154.119" r="1.80252" fill="#D9D9D9"/>
  <circle cx="261.365" cy="154.119" r="1.80252" fill="#D9D9D9"/>
  <circle cx="66.6931" cy="154.119" r="1.80252" fill="#D9D9D9"/>
  <circle cx="174.842" cy="154.119" r="1.80252" fill="#D9D9D9"/>
  <circle cx="282.994" cy="154.119" r="1.80252" fill="#D9D9D9"/>
  <circle cx="88.322" cy="154.119" r="1.80252" fill="#D9D9D9"/>
  <circle cx="196.474" cy="154.119" r="1.80252" fill="#D9D9D9"/>
  <circle cx="304.623" cy="154.119" r="1.80252" fill="#D9D9D9"/>
  <circle cx="1.80252" cy="67.5974" r="1.80252" fill="#D9D9D9"/>
  <circle cx="109.955" cy="67.5974" r="1.80252" fill="#D9D9D9"/>
  <circle cx="218.103" cy="67.5974" r="1.80252" fill="#D9D9D9"/>
  <circle cx="23.4314" cy="67.5974" r="1.80252" fill="#D9D9D9"/>
  <circle cx="131.584" cy="67.5974" r="1.80252" fill="#D9D9D9"/>
  <circle cx="239.736" cy="67.5974" r="1.80252" fill="#D9D9D9"/>
  <circle cx="45.0642" cy="67.5974" r="1.80252" fill="#D9D9D9"/>
  <circle cx="153.213" cy="67.5974" r="1.80252" fill="#D9D9D9"/>
  <circle cx="261.365" cy="67.5974" r="1.80252" fill="#D9D9D9"/>
  <circle cx="66.6931" cy="67.5974" r="1.80252" fill="#D9D9D9"/>
  <circle cx="174.842" cy="67.5974" r="1.80252" fill="#D9D9D9"/>
  <circle cx="282.994" cy="67.5974" r="1.80252" fill="#D9D9D9"/>
  <circle cx="88.322" cy="67.5974" r="1.80252" fill="#D9D9D9"/>
  <circle cx="196.474" cy="67.5974" r="1.80252" fill="#D9D9D9"/>
  <circle cx="304.623" cy="67.5974" r="1.80252" fill="#D9D9D9"/>
  <circle cx="1.80252" cy="45.9666" r="1.80252" fill="#D9D9D9"/>
  <circle cx="109.955" cy="45.9666" r="1.80252" fill="#D9D9D9"/>
  <circle cx="218.103" cy="45.9666" r="1.80252" fill="#D9D9D9"/>
  <circle cx="23.4314" cy="45.9666" r="1.80252" fill="#D9D9D9"/>
  <circle cx="131.584" cy="45.9666" r="1.80252" fill="#D9D9D9"/>
  <circle cx="239.736" cy="45.9666" r="1.80252" fill="#D9D9D9"/>
  <circle cx="45.0642" cy="45.9666" r="1.80252" fill="#D9D9D9"/>
  <circle cx="153.213" cy="45.9666" r="1.80252" fill="#D9D9D9"/>
  <circle cx="261.365" cy="45.9666" r="1.80252" fill="#D9D9D9"/>
  <circle cx="66.6931" cy="45.9666" r="1.80252" fill="#D9D9D9"/>
  <circle cx="174.842" cy="45.9666" r="1.80252" fill="#D9D9D9"/>
  <circle cx="282.994" cy="45.9666" r="1.80252" fill="#D9D9D9"/>
  <circle cx="88.322" cy="45.9666" r="1.80252" fill="#D9D9D9"/>
  <circle cx="196.474" cy="45.9666" r="1.80252" fill="#D9D9D9"/>
  <circle cx="304.623" cy="45.9666" r="1.80252" fill="#D9D9D9"/>
  <circle cx="1.80252" cy="24.3377" r="1.80252" fill="#D9D9D9"/>
  <circle cx="109.955" cy="24.3377" r="1.80252" fill="#D9D9D9"/>
  <circle cx="218.103" cy="24.3377" r="1.80252" fill="#D9D9D9"/>
  <circle cx="23.4314" cy="24.3377" r="1.80252" fill="#D9D9D9"/>
  <circle cx="131.584" cy="24.3377" r="1.80252" fill="#D9D9D9"/>
  <circle cx="239.736" cy="24.3377" r="1.80252" fill="#D9D9D9"/>
  <circle cx="45.0642" cy="24.3377" r="1.80252" fill="#D9D9D9"/>
  <circle cx="153.213" cy="24.3377" r="1.80252" fill="#D9D9D9"/>
  <circle cx="261.365" cy="24.3377" r="1.80252" fill="#D9D9D9"/>
  <circle cx="66.6931" cy="24.3377" r="1.80252" fill="#D9D9D9"/>
  <circle cx="174.842" cy="24.3377" r="1.80252" fill="#D9D9D9"/>
  <circle cx="282.994" cy="24.3377" r="1.80252" fill="#D9D9D9"/>
  <circle cx="88.322" cy="24.3377" r="1.80252" fill="#D9D9D9"/>
  <circle cx="196.474" cy="24.3377" r="1.80252" fill="#D9D9D9"/>
  <circle cx="304.623" cy="24.3377" r="1.80252" fill="#D9D9D9"/>
  <circle cx="325.881" cy="175.377" r="1.80252" fill="#D9D9D9"/>
  <circle cx="434.033" cy="175.377" r="1.80252" fill="#D9D9D9"/>
  <circle cx="542.181" cy="175.377" r="1.80252" fill="#D9D9D9"/>
  <circle cx="347.51" cy="175.377" r="1.80252" fill="#D9D9D9"/>
  <circle cx="455.662" cy="175.377" r="1.80252" fill="#D9D9D9"/>
  <circle cx="563.814" cy="175.377" r="1.80252" fill="#D9D9D9"/>
  <circle cx="369.142" cy="175.377" r="1.80252" fill="#D9D9D9"/>
  <circle cx="477.291" cy="175.377" r="1.80252" fill="#D9D9D9"/>
  <circle cx="585.443" cy="175.377" r="1.80252" fill="#D9D9D9"/>
  <circle cx="390.771" cy="175.377" r="1.80252" fill="#D9D9D9"/>
  <circle cx="498.92" cy="175.377" r="1.80252" fill="#D9D9D9"/>
  <circle cx="607.072" cy="175.377" r="1.80252" fill="#D9D9D9"/>
  <circle cx="412.4" cy="175.377" r="1.80252" fill="#D9D9D9"/>
  <circle cx="520.552" cy="175.377" r="1.80252" fill="#D9D9D9"/>
  <circle cx="628.701" cy="175.377" r="1.80252" fill="#D9D9D9"/>
  <circle cx="325.881" cy="305.158" r="1.80252" fill="#D9D9D9"/>
  <circle cx="434.033" cy="305.158" r="1.80252" fill="#D9D9D9"/>
  <circle cx="542.181" cy="305.158" r="1.80252" fill="#D9D9D9"/>
  <circle cx="347.51" cy="305.158" r="1.80252" fill="#D9D9D9"/>
  <circle cx="455.662" cy="305.158" r="1.80252" fill="#D9D9D9"/>
  <circle cx="563.814" cy="305.158" r="1.80252" fill="#D9D9D9"/>
  <circle cx="369.142" cy="305.158" r="1.80252" fill="#D9D9D9"/>
  <circle cx="477.291" cy="305.158" r="1.80252" fill="#D9D9D9"/>
  <circle cx="585.443" cy="305.158" r="1.80252" fill="#D9D9D9"/>
  <circle cx="390.771" cy="305.158" r="1.80252" fill="#D9D9D9"/>
  <circle cx="498.92" cy="305.158" r="1.80252" fill="#D9D9D9"/>
  <circle cx="607.072" cy="305.158" r="1.80252" fill="#D9D9D9"/>
  <circle cx="412.4" cy="305.158" r="1.80252" fill="#D9D9D9"/>
  <circle cx="520.552" cy="305.158" r="1.80252" fill="#D9D9D9"/>
  <circle cx="628.701" cy="305.158" r="1.80252" fill="#D9D9D9"/>
  <circle cx="325.881" cy="283.527" r="1.80252" fill="#D9D9D9"/>
  <circle cx="434.033" cy="283.527" r="1.80252" fill="#D9D9D9"/>
  <circle cx="542.181" cy="283.527" r="1.80252" fill="#D9D9D9"/>
  <circle cx="347.51" cy="283.527" r="1.80252" fill="#D9D9D9"/>
  <circle cx="455.662" cy="283.527" r="1.80252" fill="#D9D9D9"/>
  <circle cx="563.814" cy="283.527" r="1.80252" fill="#D9D9D9"/>
  <circle cx="369.142" cy="283.527" r="1.80252" fill="#D9D9D9"/>
  <circle cx="477.291" cy="283.527" r="1.80252" fill="#D9D9D9"/>
  <circle cx="585.443" cy="283.527" r="1.80252" fill="#D9D9D9"/>
  <circle cx="390.771" cy="283.527" r="1.80252" fill="#D9D9D9"/>
  <circle cx="498.92" cy="283.527" r="1.80252" fill="#D9D9D9"/>
  <circle cx="607.072" cy="283.527" r="1.80252" fill="#D9D9D9"/>
  <circle cx="412.4" cy="283.527" r="1.80252" fill="#D9D9D9"/>
  <circle cx="520.552" cy="283.527" r="1.80252" fill="#D9D9D9"/>
  <circle cx="628.701" cy="283.527" r="1.80252" fill="#D9D9D9"/>
  <circle cx="325.881" cy="261.898" r="1.80252" fill="#D9D9D9"/>
  <circle cx="434.033" cy="261.898" r="1.80252" fill="#D9D9D9"/>
  <circle cx="542.181" cy="261.898" r="1.80252" fill="#D9D9D9"/>
  <circle cx="347.51" cy="261.898" r="1.80252" fill="#D9D9D9"/>
  <circle cx="455.662" cy="261.898" r="1.80252" fill="#D9D9D9"/>
  <circle cx="563.814" cy="261.898" r="1.80252" fill="#D9D9D9"/>
  <circle cx="369.142" cy="261.898" r="1.80252" fill="#D9D9D9"/>
  <circle cx="477.291" cy="261.898" r="1.80252" fill="#D9D9D9"/>
  <circle cx="585.443" cy="261.898" r="1.80252" fill="#D9D9D9"/>
  <circle cx="390.771" cy="261.898" r="1.80252" fill="#D9D9D9"/>
  <circle cx="498.92" cy="261.898" r="1.80252" fill="#D9D9D9"/>
  <circle cx="607.072" cy="261.898" r="1.80252" fill="#D9D9D9"/>
  <circle cx="412.4" cy="261.898" r="1.80252" fill="#D9D9D9"/>
  <circle cx="520.552" cy="261.898" r="1.80252" fill="#D9D9D9"/>
  <circle cx="628.701" cy="261.898" r="1.80252" fill="#D9D9D9"/>
  <circle cx="325.881" cy="326.789" r="1.80252" fill="#D9D9D9"/>
  <circle cx="434.033" cy="326.789" r="1.80252" fill="#D9D9D9"/>
  <circle cx="542.181" cy="326.789" r="1.80252" fill="#D9D9D9"/>
  <circle cx="347.51" cy="326.789" r="1.80252" fill="#D9D9D9"/>
  <circle cx="455.662" cy="326.789" r="1.80252" fill="#D9D9D9"/>
  <circle cx="563.814" cy="326.789" r="1.80252" fill="#D9D9D9"/>
  <circle cx="369.142" cy="326.789" r="1.80252" fill="#D9D9D9"/>
  <circle cx="477.291" cy="326.789" r="1.80252" fill="#D9D9D9"/>
  <circle cx="585.443" cy="326.789" r="1.80252" fill="#D9D9D9"/>
  <circle cx="390.771" cy="326.789" r="1.80252" fill="#D9D9D9"/>
  <circle cx="498.92" cy="326.789" r="1.80252" fill="#D9D9D9"/>
  <circle cx="607.072" cy="326.789" r="1.80252" fill="#D9D9D9"/>
  <circle cx="412.4" cy="326.789" r="1.80252" fill="#D9D9D9"/>
  <circle cx="520.552" cy="326.789" r="1.80252" fill="#D9D9D9"/>
  <circle cx="628.701" cy="326.789" r="1.80252" fill="#D9D9D9"/>
  <circle cx="325.881" cy="240.267" r="1.80252" fill="#D9D9D9"/>
  <circle cx="434.033" cy="240.267" r="1.80252" fill="#D9D9D9"/>
  <circle cx="542.181" cy="240.267" r="1.80252" fill="#D9D9D9"/>
  <circle cx="347.51" cy="240.267" r="1.80252" fill="#D9D9D9"/>
  <circle cx="455.662" cy="240.267" r="1.80252" fill="#D9D9D9"/>
  <circle cx="563.814" cy="240.267" r="1.80252" fill="#D9D9D9"/>
  <circle cx="369.142" cy="240.267" r="1.80252" fill="#D9D9D9"/>
  <circle cx="477.291" cy="240.267" r="1.80252" fill="#D9D9D9"/>
  <circle cx="585.443" cy="240.267" r="1.80252" fill="#D9D9D9"/>
  <circle cx="390.771" cy="240.267" r="1.80252" fill="#D9D9D9"/>
  <circle cx="498.92" cy="240.267" r="1.80252" fill="#D9D9D9"/>
  <circle cx="607.072" cy="240.267" r="1.80252" fill="#D9D9D9"/>
  <circle cx="412.4" cy="240.267" r="1.80252" fill="#D9D9D9"/>
  <circle cx="520.552" cy="240.267" r="1.80252" fill="#D9D9D9"/>
  <circle cx="628.701" cy="240.267" r="1.80252" fill="#D9D9D9"/>
  <circle cx="325.881" cy="218.637" r="1.80252" fill="#D9D9D9"/>
  <circle cx="434.033" cy="218.637" r="1.80252" fill="#D9D9D9"/>
  <circle cx="542.181" cy="218.637" r="1.80252" fill="#D9D9D9"/>
  <circle cx="347.51" cy="218.637" r="1.80252" fill="#D9D9D9"/>
  <circle cx="455.662" cy="218.637" r="1.80252" fill="#D9D9D9"/>
  <circle cx="563.814" cy="218.637" r="1.80252" fill="#D9D9D9"/>
  <circle cx="369.142" cy="218.637" r="1.80252" fill="#D9D9D9"/>
  <circle cx="477.291" cy="218.637" r="1.80252" fill="#D9D9D9"/>
  <circle cx="585.443" cy="218.637" r="1.80252" fill="#D9D9D9"/>
  <circle cx="390.771" cy="218.637" r="1.80252" fill="#D9D9D9"/>
  <circle cx="498.92" cy="218.637" r="1.80252" fill="#D9D9D9"/>
  <circle cx="607.072" cy="218.637" r="1.80252" fill="#D9D9D9"/>
  <circle cx="412.4" cy="218.637" r="1.80252" fill="#D9D9D9"/>
  <circle cx="520.552" cy="218.637" r="1.80252" fill="#D9D9D9"/>
  <circle cx="628.701" cy="218.637" r="1.80252" fill="#D9D9D9"/>
  <circle cx="325.881" cy="197.008" r="1.80252" fill="#D9D9D9"/>
  <circle cx="434.033" cy="197.008" r="1.80252" fill="#D9D9D9"/>
  <circle cx="542.181" cy="197.008" r="1.80252" fill="#D9D9D9"/>
  <circle cx="347.51" cy="197.008" r="1.80252" fill="#D9D9D9"/>
  <circle cx="455.662" cy="197.008" r="1.80252" fill="#D9D9D9"/>
  <circle cx="563.814" cy="197.008" r="1.80252" fill="#D9D9D9"/>
  <circle cx="369.142" cy="197.008" r="1.80252" fill="#D9D9D9"/>
  <circle cx="477.291" cy="197.008" r="1.80252" fill="#D9D9D9"/>
  <circle cx="585.443" cy="197.008" r="1.80252" fill="#D9D9D9"/>
  <circle cx="390.771" cy="197.008" r="1.80252" fill="#D9D9D9"/>
  <circle cx="498.92" cy="197.008" r="1.80252" fill="#D9D9D9"/>
  <circle cx="607.072" cy="197.008" r="1.80252" fill="#D9D9D9"/>
  <circle cx="412.4" cy="197.008" r="1.80252" fill="#D9D9D9"/>
  <circle cx="520.552" cy="197.008" r="1.80252" fill="#D9D9D9"/>
  <circle cx="628.701" cy="197.008" r="1.80252" fill="#D9D9D9"/>
  <circle cx="325.881" cy="2.70681" r="1.80252" fill="#D9D9D9"/>
  <circle cx="434.033" cy="2.70681" r="1.80252" fill="#D9D9D9"/>
  <circle cx="542.181" cy="2.70681" r="1.80252" fill="#D9D9D9"/>
  <circle cx="347.51" cy="2.70681" r="1.80252" fill="#D9D9D9"/>
  <circle cx="455.662" cy="2.70681" r="1.80252" fill="#D9D9D9"/>
  <circle cx="563.814" cy="2.70681" r="1.80252" fill="#D9D9D9"/>
  <circle cx="369.142" cy="2.70681" r="1.80252" fill="#D9D9D9"/>
  <circle cx="477.291" cy="2.70681" r="1.80252" fill="#D9D9D9"/>
  <circle cx="585.443" cy="2.70681" r="1.80252" fill="#D9D9D9"/>
  <circle cx="390.771" cy="2.70681" r="1.80252" fill="#D9D9D9"/>
  <circle cx="498.92" cy="2.70681" r="1.80252" fill="#D9D9D9"/>
  <circle cx="607.072" cy="2.70681" r="1.80252" fill="#D9D9D9"/>
  <circle cx="412.4" cy="2.70681" r="1.80252" fill="#D9D9D9"/>
  <circle cx="520.552" cy="2.70681" r="1.80252" fill="#D9D9D9"/>
  <circle cx="628.701" cy="2.70681" r="1.80252" fill="#D9D9D9"/>
  <circle cx="325.881" cy="132.488" r="1.80252" fill="#D9D9D9"/>
  <circle cx="434.033" cy="132.488" r="1.80252" fill="#D9D9D9"/>
  <circle cx="542.181" cy="132.488" r="1.80252" fill="#D9D9D9"/>
  <circle cx="347.51" cy="132.488" r="1.80252" fill="#D9D9D9"/>
  <circle cx="455.662" cy="132.488" r="1.80252" fill="#D9D9D9"/>
  <circle cx="563.814" cy="132.488" r="1.80252" fill="#D9D9D9"/>
  <circle cx="369.142" cy="132.488" r="1.80252" fill="#D9D9D9"/>
  <circle cx="477.291" cy="132.488" r="1.80252" fill="#D9D9D9"/>
  <circle cx="585.443" cy="132.488" r="1.80252" fill="#D9D9D9"/>
  <circle cx="390.771" cy="132.488" r="1.80252" fill="#D9D9D9"/>
  <circle cx="498.92" cy="132.488" r="1.80252" fill="#D9D9D9"/>
  <circle cx="607.072" cy="132.488" r="1.80252" fill="#D9D9D9"/>
  <circle cx="412.4" cy="132.488" r="1.80252" fill="#D9D9D9"/>
  <circle cx="520.552" cy="132.488" r="1.80252" fill="#D9D9D9"/>
  <circle cx="628.701" cy="132.488" r="1.80252" fill="#D9D9D9"/>
  <circle cx="325.881" cy="110.857" r="1.80252" fill="#D9D9D9"/>
  <circle cx="434.033" cy="110.857" r="1.80252" fill="#D9D9D9"/>
  <circle cx="542.181" cy="110.857" r="1.80252" fill="#D9D9D9"/>
  <circle cx="347.51" cy="110.857" r="1.80252" fill="#D9D9D9"/>
  <circle cx="455.662" cy="110.857" r="1.80252" fill="#D9D9D9"/>
  <circle cx="563.814" cy="110.857" r="1.80252" fill="#D9D9D9"/>
  <circle cx="369.142" cy="110.857" r="1.80252" fill="#D9D9D9"/>
  <circle cx="477.291" cy="110.857" r="1.80252" fill="#D9D9D9"/>
  <circle cx="585.443" cy="110.857" r="1.80252" fill="#D9D9D9"/>
  <circle cx="390.771" cy="110.857" r="1.80252" fill="#D9D9D9"/>
  <circle cx="498.92" cy="110.857" r="1.80252" fill="#D9D9D9"/>
  <circle cx="607.072" cy="110.857" r="1.80252" fill="#D9D9D9"/>
  <circle cx="412.4" cy="110.857" r="1.80252" fill="#D9D9D9"/>
  <circle cx="520.552" cy="110.857" r="1.80252" fill="#D9D9D9"/>
  <circle cx="628.701" cy="110.857" r="1.80252" fill="#D9D9D9"/>
  <circle cx="325.881" cy="89.2283" r="1.80252" fill="#D9D9D9"/>
  <circle cx="434.033" cy="89.2283" r="1.80252" fill="#D9D9D9"/>
  <circle cx="542.181" cy="89.2283" r="1.80252" fill="#D9D9D9"/>
  <circle cx="347.51" cy="89.2283" r="1.80252" fill="#D9D9D9"/>
  <circle cx="455.662" cy="89.2283" r="1.80252" fill="#D9D9D9"/>
  <circle cx="563.814" cy="89.2283" r="1.80252" fill="#D9D9D9"/>
  <circle cx="369.142" cy="89.2283" r="1.80252" fill="#D9D9D9"/>
  <circle cx="477.291" cy="89.2283" r="1.80252" fill="#D9D9D9"/>
  <circle cx="585.443" cy="89.2283" r="1.80252" fill="#D9D9D9"/>
  <circle cx="390.771" cy="89.2283" r="1.80252" fill="#D9D9D9"/>
  <circle cx="498.92" cy="89.2283" r="1.80252" fill="#D9D9D9"/>
  <circle cx="607.072" cy="89.2283" r="1.80252" fill="#D9D9D9"/>
  <circle cx="412.4" cy="89.2283" r="1.80252" fill="#D9D9D9"/>
  <circle cx="520.552" cy="89.2283" r="1.80252" fill="#D9D9D9"/>
  <circle cx="628.701" cy="89.2283" r="1.80252" fill="#D9D9D9"/>
  <circle cx="325.881" cy="154.119" r="1.80252" fill="#D9D9D9"/>
  <circle cx="434.033" cy="154.119" r="1.80252" fill="#D9D9D9"/>
  <circle cx="542.181" cy="154.119" r="1.80252" fill="#D9D9D9"/>
  <circle cx="347.51" cy="154.119" r="1.80252" fill="#D9D9D9"/>
  <circle cx="455.662" cy="154.119" r="1.80252" fill="#D9D9D9"/>
  <circle cx="563.814" cy="154.119" r="1.80252" fill="#D9D9D9"/>
  <circle cx="369.142" cy="154.119" r="1.80252" fill="#D9D9D9"/>
  <circle cx="477.291" cy="154.119" r="1.80252" fill="#D9D9D9"/>
  <circle cx="585.443" cy="154.119" r="1.80252" fill="#D9D9D9"/>
  <circle cx="390.771" cy="154.119" r="1.80252" fill="#D9D9D9"/>
  <circle cx="498.92" cy="154.119" r="1.80252" fill="#D9D9D9"/>
  <circle cx="607.072" cy="154.119" r="1.80252" fill="#D9D9D9"/>
  <circle cx="412.4" cy="154.119" r="1.80252" fill="#D9D9D9"/>
  <circle cx="520.552" cy="154.119" r="1.80252" fill="#D9D9D9"/>
  <circle cx="628.701" cy="154.119" r="1.80252" fill="#D9D9D9"/>
  <circle cx="325.881" cy="67.5974" r="1.80252" fill="#D9D9D9"/>
  <circle cx="434.033" cy="67.5974" r="1.80252" fill="#D9D9D9"/>
  <circle cx="542.181" cy="67.5974" r="1.80252" fill="#D9D9D9"/>
  <circle cx="347.51" cy="67.5974" r="1.80252" fill="#D9D9D9"/>
  <circle cx="455.662" cy="67.5974" r="1.80252" fill="#D9D9D9"/>
  <circle cx="563.814" cy="67.5974" r="1.80252" fill="#D9D9D9"/>
  <circle cx="369.142" cy="67.5974" r="1.80252" fill="#D9D9D9"/>
  <circle cx="477.291" cy="67.5974" r="1.80252" fill="#D9D9D9"/>
  <circle cx="585.443" cy="67.5974" r="1.80252" fill="#D9D9D9"/>
  <circle cx="390.771" cy="67.5974" r="1.80252" fill="#D9D9D9"/>
  <circle cx="498.92" cy="67.5974" r="1.80252" fill="#D9D9D9"/>
  <circle cx="607.072" cy="67.5974" r="1.80252" fill="#D9D9D9"/>
  <circle cx="412.4" cy="67.5974" r="1.80252" fill="#D9D9D9"/>
  <circle cx="520.552" cy="67.5974" r="1.80252" fill="#D9D9D9"/>
  <circle cx="628.701" cy="67.5974" r="1.80252" fill="#D9D9D9"/>
  <circle cx="325.881" cy="45.9666" r="1.80252" fill="#D9D9D9"/>
  <circle cx="434.033" cy="45.9666" r="1.80252" fill="#D9D9D9"/>
  <circle cx="542.181" cy="45.9666" r="1.80252" fill="#D9D9D9"/>
  <circle cx="347.51" cy="45.9666" r="1.80252" fill="#D9D9D9"/>
  <circle cx="455.662" cy="45.9666" r="1.80252" fill="#D9D9D9"/>
  <circle cx="563.814" cy="45.9666" r="1.80252" fill="#D9D9D9"/>
  <circle cx="369.142" cy="45.9666" r="1.80252" fill="#D9D9D9"/>
  <circle cx="477.291" cy="45.9666" r="1.80252" fill="#D9D9D9"/>
  <circle cx="585.443" cy="45.9666" r="1.80252" fill="#D9D9D9"/>
  <circle cx="390.771" cy="45.9666" r="1.80252" fill="#D9D9D9"/>
  <circle cx="498.92" cy="45.9666" r="1.80252" fill="#D9D9D9"/>
  <circle cx="607.072" cy="45.9666" r="1.80252" fill="#D9D9D9"/>
  <circle cx="412.4" cy="45.9666" r="1.80252" fill="#D9D9D9"/>
  <circle cx="520.552" cy="45.9666" r="1.80252" fill="#D9D9D9"/>
  <circle cx="628.701" cy="45.9666" r="1.80252" fill="#D9D9D9"/>
  <circle cx="325.881" cy="24.3377" r="1.80252" fill="#D9D9D9"/>
  <circle cx="434.033" cy="24.3377" r="1.80252" fill="#D9D9D9"/>
  <circle cx="542.181" cy="24.3377" r="1.80252" fill="#D9D9D9"/>
  <circle cx="347.51" cy="24.3377" r="1.80252" fill="#D9D9D9"/>
  <circle cx="455.662" cy="24.3377" r="1.80252" fill="#D9D9D9"/>
  <circle cx="563.814" cy="24.3377" r="1.80252" fill="#D9D9D9"/>
  <circle cx="369.142" cy="24.3377" r="1.80252" fill="#D9D9D9"/>
  <circle cx="477.291" cy="24.3377" r="1.80252" fill="#D9D9D9"/>
  <circle cx="585.443" cy="24.3377" r="1.80252" fill="#D9D9D9"/>
  <circle cx="390.771" cy="24.3377" r="1.80252" fill="#D9D9D9"/>
  <circle cx="498.92" cy="24.3377" r="1.80252" fill="#D9D9D9"/>
  <circle cx="607.072" cy="24.3377" r="1.80252" fill="#D9D9D9"/>
  <circle cx="412.4" cy="24.3377" r="1.80252" fill="#D9D9D9"/>
  <circle cx="520.552" cy="24.3377" r="1.80252" fill="#D9D9D9"/>
  <circle cx="628.701" cy="24.3377" r="1.80252" fill="#D9D9D9"/>
  </g>
</svg>
